<svg id="Capa_1" data-name="Capa 1" xmlns="http://www.w3.org/2000/svg" xmlns:xlink="http://www.w3.org/1999/xlink" viewBox="0 0 673 749"><defs><style>.cls-1{stroke-miterlimit:10;fill:url(#Degradado_sin_nombre_42);stroke:url(#Degradado_sin_nombre_38);}.cls-2{fill:url(#Degradado_sin_nombre_25);}</style><linearGradient id="Degradado_sin_nombre_42" x1="18.69" y1="364.31" x2="653.79" y2="364.31" gradientUnits="userSpaceOnUse"><stop offset="0" stop-color="#fff"/><stop offset="0.37" stop-color="#0096e7"/><stop offset="1"/></linearGradient><linearGradient id="Degradado_sin_nombre_38" x1="18.19" y1="364.31" x2="654.29" y2="364.31" gradientUnits="userSpaceOnUse"><stop offset="0" stop-color="#fff"/><stop offset="0.4" stop-color="#0092b9"/><stop offset="0.98"/></linearGradient><linearGradient id="Degradado_sin_nombre_25" x1="290.77" y1="355.5" x2="407.38" y2="355.5" gradientUnits="userSpaceOnUse"><stop offset="0" stop-color="#fff"/><stop offset="0.61" stop-color="#0092b9"/><stop offset="0.98"/></linearGradient></defs><path class="cls-1" d="M625,309,493,184c-98.51-74.61-203.94-80.57-319,9L34,322s-30,27-6,50L167,532c96.42,83.6,203.27,101.83,329.29,0L646,371C661.54,354.82,653.46,330.83,625,309ZM339,538.5c-89.75,0-162.5-77.23-162.5-172.5S249.25,193.5,339,193.5,501.5,270.73,501.5,366,428.75,538.5,339,538.5Z"/><path class="cls-2" d="M368,316.2c-11.12-12.93-17.78-28.56-21-45.2-6.14,19.47-14.95,38.77-29.77,53.2-18.4,12.66-28.12,37.12-26.23,59.8,3,29,26,55,56,56,21,0,40-11,51-29,11-19,13-44,2.38-63.05C392,335.14,380.53,325.15,368,316.2ZM350,407a21,21,0,1,1,21-21A21,21,0,0,1,350,407Z"/></svg>