<svg id="Capa_1" data-name="Capa 1" xmlns="http://www.w3.org/2000/svg" xmlns:xlink="http://www.w3.org/1999/xlink" viewBox="0 0 1622 517"><defs><style>.cls-1{stroke-miterlimit:10;fill:url(#Degradado_sin_nombre_42);stroke:url(#Degradado_sin_nombre_38);}.cls-2{fill:url(#Degradado_sin_nombre_25);}.cls-3{font-size:271.34px;fill:#f9f4f4;font-family:Playbill;}.cls-4{fill:#14efe4;letter-spacing:0em;}</style><linearGradient id="Degradado_sin_nombre_42" x1="42.69" y1="262.31" x2="677.79" y2="262.31" gradientUnits="userSpaceOnUse"><stop offset="0" stop-color="#fff"/><stop offset="0.37" stop-color="#0096e7"/><stop offset="1"/></linearGradient><linearGradient id="Degradado_sin_nombre_38" x1="42.19" y1="262.31" x2="678.29" y2="262.31" gradientUnits="userSpaceOnUse"><stop offset="0" stop-color="#fff"/><stop offset="0.4" stop-color="#0092b9"/><stop offset="0.98"/></linearGradient><linearGradient id="Degradado_sin_nombre_25" x1="314.77" y1="253.5" x2="431.38" y2="253.5" gradientUnits="userSpaceOnUse"><stop offset="0" stop-color="#fff"/><stop offset="0.61" stop-color="#0092b9"/><stop offset="0.98"/></linearGradient></defs><path class="cls-1" d="M649,207,517,82C418.49,7.39,313.06,1.43,198,91L58,220s-30,27-6,50L191,430c96.42,83.6,203.27,101.83,329.29,0L670,269C685.54,252.82,677.46,228.83,649,207ZM363,436.5c-89.75,0-162.5-77.23-162.5-172.5S273.25,91.5,363,91.5,525.5,168.73,525.5,264,452.75,436.5,363,436.5Z"/><path class="cls-2" d="M392,214.2c-11.12-12.93-17.78-28.56-21-45.2-6.14,19.47-14.95,38.77-29.77,53.2-18.4,12.66-28.12,37.12-26.23,59.8,3,29,26,55,56,56,21,0,40-11,51-29,11-19,13-44,2.38-63.05C416,233.14,404.53,223.15,392,214.2ZM374,305a21,21,0,1,1,21-21A21,21,0,0,1,374,305Z"/><text class="cls-3" transform="translate(733.53 317.16)">SPECTRA<tspan class="cls-4" x="596.88" y="0">HUB</tspan></text></svg>